<?xml version="1.0" encoding="utf-8"?>
<!-- Generator: Adobe Illustrator 25.2.0, SVG Export Plug-In . SVG Version: 6.00 Build 0)  -->
<svg version="1.1" id="Layer_1" xmlns="http://www.w3.org/2000/svg" xmlns:xlink="http://www.w3.org/1999/xlink" x="0px" y="0px"
	 viewBox="0 0 128 128" style="enable-background:new 0 0 128 128;" xml:space="preserve">
<style type="text/css">
	.st0{fill:#fff;}
</style>
<g id="fall">
	<path class="st0" d="M64,0.5c2.3,0,4.5,1,6.1,2.8l0.2,0.2l5.3,6.8c1.3,1.7,3.4,2.8,5.6,2.9l0.3,0c5.1,0,8.8,4.7,7.7,9.5L89,22.9
		l-6.6,25.7l5.9-5.7c1.3-1.3,3.1-2.1,4.9-2.2l0.3,0l0.3,0c2.5,0,4.9,1.2,6.4,3.3l0.2,0.2l0.5,0.7c1.2,1.9,3.3,3,5.5,3.2l0.3,0
		l9.2,0.5c5.2,0.3,8.7,5.4,7.1,10.2l-0.1,0.2l-3.1,8.6c-0.8,2.1-0.5,4.4,0.6,6.3l0.2,0.2l0.7,1c2.6,3.9,1.2,9.1-2.9,11.3l-0.2,0.1
		l-16.2,7.7l0,4.1c0,4.2-3.3,7.5-7.4,7.8l-0.2,0l-0.2,0c-0.2,0-0.4,0-0.7,0l-0.3,0L66.4,103l0,22c0,1.2-0.9,2.3-2.1,2.4l-0.2,0
		l-0.2,0c-1.3,0-2.4-1-2.4-2.3l0-0.2l0-22l-26.5,3.2l-0.3,0l-0.3,0l-0.3,0c-4.2,0-7.7-3.4-7.9-7.6l0-0.2l0-4.1L10,86.7
		c-4.2-2-5.7-7-3.4-11l0.1-0.2l0.1-0.2l0.7-1c1.2-1.9,1.6-4.2,0.9-6.3l-0.1-0.3l-3.1-8.6c-1.8-4.9,1.6-10,6.8-10.5l0.2,0l9.2-0.5
		c2.3-0.1,4.3-1.2,5.6-3l0.2-0.2l0.5-0.7c1.5-2.2,4-3.5,6.6-3.5c1.9,0,3.8,0.7,5.3,2l0.2,0.2l5.9,5.7L39,22.9
		c-1.2-4.8,2.3-9.4,7.2-9.7l0.2,0l0.2,0c2.2,0,4.3-1,5.7-2.6l0.2-0.2l5.3-6.8C59.3,1.6,61.6,0.5,64,0.5z M64,5.4
		c-0.9,0-1.7,0.4-2.3,1l-0.1,0.2l-5.3,6.8c-2.3,3-5.9,4.7-9.7,4.7c-1,0-1.8,0.4-2.4,1.2c-0.5,0.6-0.7,1.4-0.6,2.3l0,0.2l6.9,26.6
		c0.5,2-0.4,4.1-2.2,5.2c-0.7,0.4-1.5,0.6-2.3,0.6c-1.1,0-2.2-0.4-3-1.1l-0.2-0.2l-6.5-6.3c-0.6-0.5-1.3-0.9-2.1-0.9
		c-1,0-1.8,0.4-2.4,1.2L31.7,47l-0.5,0.7c-2.1,3.1-5.5,5.1-9.3,5.4l-0.4,0l-9.2,0.5c-1,0-1.8,0.5-2.4,1.3c-0.4,0.7-0.6,1.5-0.4,2.4
		l0.1,0.2l3.1,8.6c1.3,3.5,0.9,7.5-1.1,10.6L11.6,77l-0.7,1c-0.5,0.8-0.6,1.6-0.4,2.4c0.2,0.7,0.6,1.4,1.4,1.8l0.2,0.1L28.5,90
		c1.6,0.7,2.6,2.3,2.6,4l0,0.2v4.2c0,1.6,1.3,2.9,3,2.9l0.2,0l0.2,0l27.1-3.3v-7.9L42.1,77.9L32,82.7c-1.2,0.6-2.6,0.1-3.2-1
		l-0.1-0.1c-0.6-1.2-0.1-2.5,1-3.2l0.1-0.1l7.3-3.5l-11.4-7.2c-1.1-0.7-1.4-2.1-0.8-3.2l0.1-0.1c0.7-1.1,2.1-1.4,3.2-0.8l0.1,0.1
		l11.4,7.2l0-8.1c0-1.3,1-2.4,2.3-2.4l0.2,0c1.3,0,2.4,1,2.4,2.3l0,0.2l0,11.2l16.9,10.7V42.3l-8.1-8.1c-0.9-0.9-1-2.4-0.1-3.3
		l0.1-0.1c0.9-0.9,2.4-0.9,3.3-0.1l0.1,0.1l4.7,4.7l0-10.6c0-1.3,1-2.4,2.3-2.4l0.2,0c1.3,0,2.4,1,2.4,2.3l0,0.2l0,10.6l4.7-4.7
		c0.9-0.9,2.4-0.9,3.3-0.1l0.1,0.1c0.9,0.9,1,2.4,0.1,3.3l-0.1,0.1l-8.1,8.1v42.1l16.9-10.7l0-11.2c0-1.3,1-2.4,2.3-2.4l0.2,0
		c1.3,0,2.4,1,2.4,2.3l0,0.2l0,8.1l11.4-7.2c1.1-0.7,2.5-0.4,3.3,0.6l0.1,0.1c0.7,1.1,0.4,2.5-0.6,3.3l-0.1,0.1l-11.4,7.2l7.3,3.5
		c1.2,0.6,1.7,1.9,1.2,3.1l-0.1,0.2c-0.6,1.2-1.9,1.7-3.1,1.2L96,82.7l-10.1-4.8L66.4,90.2v7.9l27.1,3.3l0.3,0l0.1,0
		c1.6,0,2.9-1.2,3-2.8l0-0.2v-4.2c0-1.7,0.9-3.3,2.5-4.1l0.2-0.1l16.4-7.7c0.9-0.4,1.4-1.1,1.6-1.9c0.2-0.7,0.2-1.5-0.3-2.2
		l-0.1-0.2l-0.7-1c-2.1-3.1-2.6-7.1-1.4-10.6l0.1-0.3l3.1-8.6c0.4-1,0.2-1.9-0.3-2.6c-0.5-0.7-1.3-1.2-2.2-1.3l-0.2,0l-9.2-0.5
		c-3.7-0.2-7.2-2.1-9.4-5.1l-0.2-0.3L96.3,47c-0.6-0.8-1.5-1.3-2.5-1.3c-0.7,0-1.4,0.2-2,0.7l-0.2,0.1l-6.5,6.3
		c-0.9,0.8-2,1.3-3.2,1.3c-0.8,0-1.6-0.2-2.3-0.6c-1.7-1-2.6-3-2.2-4.9l0.1-0.2l6.9-26.6c0.3-1,0-1.8-0.5-2.5
		c-0.6-0.7-1.4-1.2-2.4-1.2c-3.7,0-7.2-1.7-9.5-4.5l-0.2-0.3l-5.3-6.8C65.8,5.8,65,5.4,64,5.4z"/>
</g>
</svg>
