<svg xmlns="http://www.w3.org/2000/svg" width="40" height="40" viewBox="0 0 40 40">
    <g fill="none" fill-rule="evenodd">
        <g fill="#FFF" fill-rule="nonzero">
            <g>
                <g>
                    <path d="M38.917.184C38.804.07 38.647 0 38.474 0H.625C.28 0 0 .28 0 .625c.003 36.4.002-23.337.002 38.75 0 .345.28.625.625.625h37.849c.345 0 .625-.28.625-.625V.627c0-.173-.07-.33-.184-.443zM21.819 38.75V5.082h.425c1.233 10.057 6.245 14.142 9.723 15.776-1.096.397-1.886 1.44-1.886 2.672 0 1.576 1.252 2.851 2.851 2.851h.412c-2.504 3.417-4.697 10.493-5.252 12.369H21.82zm-10.81 0c-.555-1.876-2.747-8.952-5.252-12.369.17-.026 1.409.192 2.433-.83.536-.536.831-1.254.831-2.021 0-1.23-.786-2.27-1.88-2.67 3.465-1.631 8.483-5.715 9.716-15.778h.423V38.75h-6.272zm25.88-18.091c-1.196-.986-7.862-6.836-8.87-15.577h5.69c-.125 5.098.633 11.189 3.18 15.577zM26.774 5.082c.832 7.703 5.683 13.187 8.138 15.5-2.164-.465-9.819-2.996-11.41-15.5h3.272zm8.193 0h2.885v14.72c-2.337-4.237-3-9.9-2.885-14.72zM1.252 25.132v-3.204H6.17c.883 0 1.602.718 1.602 1.602 0 .893-.704 1.601-1.602 1.601H1.252zm2.925-4.539c2.45-2.305 7.325-7.79 8.158-15.51h3.264c-1.607 12.666-9.256 15.081-11.422 15.51zm-1.967.066c1.166-2.006 3.384-6.99 3.18-15.577h5.688c-1.01 8.739-7.686 14.603-8.868 15.577zM4.14 5.082c.191 7.94-1.79 12.703-2.888 14.71V5.081H4.14zm-1.8 21.3c2.17 3.85 3.198 10.263 3.488 12.368h-2.27c-.007-1.978-.138-8.101-1.423-12.369h.205zm1.42 0h.373c2.423 2.48 4.825 9.917 5.569 12.368h-2.61c-.25-1.896-1.198-8.15-3.332-12.369zM1.252 3.831v-2.58H37.85v2.58H1.252zm31.68 21.3c-.898 0-1.601-.707-1.601-1.602 0-.884.718-1.602 1.601-1.602h4.917v3.203h-4.917zm4.033 1.25c-1.287 4.273-1.415 10.4-1.421 12.368h-2.271c.29-2.104 1.317-8.518 3.485-12.369h.207zm-35.713 1.54c.93 3.961 1.044 9.08 1.054 10.828H1.252V27.922zM18.53 38.75V5.082h2.039V38.75h-2.04zm10.869 0c.746-2.457 3.151-9.896 5.576-12.369h.37c-2.133 4.217-3.085 10.47-3.336 12.369H29.4zm7.396 0c.01-1.738.124-6.854 1.056-10.823V38.75h-1.056z" transform="translate(-1166 -3597) translate(54 3468) translate(1112 129)"/>
                </g>
            </g>
        </g>
    </g>
</svg>
