<svg xmlns="http://www.w3.org/2000/svg" width="55" height="40" viewBox="0 0 55 40">
    <g fill="none" fill-rule="evenodd">
        <g fill="#FFF" fill-rule="nonzero">
            <g>
                <g>
                    <path d="M52.875 16.034H7.95V4.262c0-1.617 1.357-2.932 3.02-2.932 1.44-.013 2.685.999 2.967 2.41l-1.86.435c-.33.076-.551.388-.512.725.039.337.325.59.664.588.052 0 .103-.006.153-.018l2.327-.547c.057-.005.112-.018.165-.039l2.31-.542c.236-.05.427-.223.498-.453.071-.23.012-.481-.154-.656-.166-.174-.414-.245-.647-.185l-1.652.387C14.803 1.425 13.024-.01 10.969 0 8.585 0 6.65 1.894 6.625 4.228v11.806H1.64c-.92 0-1.64.98-1.64 2.23v.259c0 .922.392 1.694.966 2.038.1 3.965 1.37 7.813 3.65 11.059 2.32 3.324 5.663 6.094 9.67 8.002.532.25 1.113.38 1.7.378h22.7c.615 0 1.221-.141 1.773-.414 3.899-1.947 7.17-4.737 9.459-8.071 2.275-3.313 3.519-7.092 3.614-10.95.584-.339.983-1.118.983-2.049v-.258c0-1.244-.72-2.224-1.64-2.224zm.31 2.23v.259c0 .54-.227.862-.318.9h-6.58v-2.059h6.58c.097.038.318.365.318.9zm-18.614-.9h10.384v11.881H34.571V17.364zm10.358 13.211c-.137.997-.867 1.767-1.748 1.767h-6.838c-.886 0-1.613-.769-1.748-1.772l10.334.005zm-43.6-12.31c0-.543.222-.863.318-.901H33.24v2.058H1.648c-.097-.031-.318-.357-.318-.899v-.258zm47.492 12.504c-2.162 3.148-5.259 5.787-8.956 7.633-.367.181-.77.275-1.18.275H15.989c-.39 0-.777-.085-1.13-.252-7.646-3.642-12.3-10.211-12.557-17.67h30.94v9.482c0 1.896 1.392 3.435 3.102 3.435h6.837c1.712 0 3.102-1.542 3.102-3.435v-9.485h5.91c-.125 3.53-1.285 6.979-3.371 10.017z" transform="translate(-745 -3598) translate(54 3468) translate(691 130)"/>
                </g>
            </g>
        </g>
    </g>
</svg>
