<svg xmlns="http://www.w3.org/2000/svg" width="40" height="40" viewBox="0 0 40 40">
    <g fill="none" fill-rule="evenodd">
        <g fill="#FFF" fill-rule="nonzero">
            <g>
                <g>
                    <g>
                        <path d="M.488 37.393h16.694c.027.008.051.024.08.028l14.422 2.07c.124.019.247.027.368.027 1.254 0 2.355-.92 2.54-2.195l4.406-30.458c.098-.677-.075-1.351-.486-1.899-.411-.547-1.011-.902-1.69-1l-8.678-1.245C27.958 1.458 26.877.482 25.563.482H.488C.218.482 0 .7 0 .97v35.935c0 .27.219.488.488.488zm3.115-23.43H.976v-3.597h2.627v3.597zm0 .976v3.598H.976v-3.598h2.627zm0 4.573v3.598H.976v-3.598h2.627zm0 4.573v3.598H.976v-3.598h2.627zm0 4.574v3.597H.976V28.66h2.627zm0-19.269H.976V5.793h2.627V9.39zM.976 33.232h2.627v3.185H.976v-3.185zm36.756-27.68c.254.339.36.756.3 1.174l-4.406 30.458c-.125.865-.934 1.465-1.803 1.342l-7.894-1.133h1.634c1.444 0 2.62-1.175 2.62-2.62V18.999l4.245.61c.024.003.047.004.07.004.24 0 .447-.175.482-.418l1.133-7.827c.018-.128-.015-.259-.093-.362-.077-.104-.193-.172-.321-.19l-5.516-.793v-6.31l8.5 1.22c.422.06.794.28 1.049.62zM28.183 16.24l1.078.155c.024.003.047.005.07.005.24 0 .448-.176.483-.419.038-.267-.147-.514-.414-.552l-1.217-.175v-1.485l1.428.205c.024.004.047.005.07.005.239 0 .448-.175.482-.418.039-.267-.146-.514-.413-.553l-1.567-.225v-1.774l4.894.702-.993 6.862-3.901-.56V16.24zm-.975-13.137v31.67c0 .907-.738 1.645-1.645 1.645H4.58V1.457h20.984c.907 0 1.645.738 1.645 1.645zM3.603 1.458v3.359H.976v-3.36h2.627z" transform="translate(-1165 -3859) translate(54 3468) translate(1111 391)"/>
                        <path d="M9.427 17.03H21.64c.269 0 .487-.219.487-.488v-8.14c0-.268-.218-.487-.487-.487H9.427c-.269 0-.487.219-.487.488v8.139c0 .27.218.488.487.488zm.488-8.14h11.237v7.164H9.915V8.891z" transform="translate(-1165 -3859) translate(54 3468) translate(1111 391)"/>
                        <path d="M18.538 10.726h-6.01c-.268 0-.487.218-.487.488 0 .269.219.487.488.487h6.009c.27 0 .488-.218.488-.487 0-.27-.219-.488-.488-.488zM18.538 13.243h-6.01c-.268 0-.487.218-.487.488 0 .269.219.488.488.488h6.009c.27 0 .488-.219.488-.488 0-.27-.219-.488-.488-.488z" transform="translate(-1165 -3859) translate(54 3468) translate(1111 391)"/>
                    </g>
                </g>
            </g>
        </g>
    </g>
</svg>
