<svg xmlns="http://www.w3.org/2000/svg" width="67" height="40" viewBox="0 0 67 40">
    <g fill="none" fill-rule="evenodd">
        <g fill="#FFF" fill-rule="nonzero">
            <g>
                <g>
                    <path d="M66.444 28h-.814c.148-.296.222-.667.222-1.037v-2.815c0-.74-.296-1.333-.815-1.852.222-.444.222-1.037-.148-1.481l-2.815-4c-1.111-1.556-2.889-2.445-4.74-2.445l-16.223.074c.074-.444 0-.888-.222-1.185-.445-.74-1.556-.74-2.296-.74h-8.667c-1.556 0-2.074 1.259-2.37 2h-3.852c-.89-.963-5.63-5.186-13.556-1.482L9.926.741c0-.222-.074-.37-.222-.519C9.556.074 9.334 0 9.11 0L.741.519c-.37 0-.741.37-.741.74v37.853c0 .295.222.592.444.74.075 0 .223.074.297.074.222 0 .37-.074.518-.222l3.185-3.408h57.704c0 .148.074.223.148.37l2.445 3.038c.148.148.37.296.592.296.074 0 .148 0 .223-.074.296-.074.518-.37.518-.74v-2.964h.222V28h.148zM1.556 34.74v-5.184h63.333v5.185H1.556zm19.851-13.777l.741-.815s-.222-2.592 1.26-4.074h3.48l-2.295 5.63H4.223l1.11-1.037 16.074.296zM2.444 27.037v-2.815c0-.518.445-1.037 1.037-1.037h20.89V28H3.48c-.518 0-1.037-.444-1.037-.963zM38 28v-4.815h25.333c.519 0 1.037.445 1.037 1.037v2.815c0 .519-.444 1.037-1.037 1.037H38V28zm19.407-12c1.408 0 2.741.667 3.556 1.778l2.74 3.852H38.37L40.667 16h16.74zm-27.481-1.926h8.667c.296 0 1.037 0 1.11.148 0 0 .075.148-.147.519l-.149.296-2.963 7.26V28H25.926v-5.407l2.963-7.334c.444-1.11.667-1.185 1.037-1.185zm-7.704 1.111c-1.185 1.408-1.481 3.185-1.555 4.222l-15.63-.37c1.333-1.185 2.889-2.667 3.778-3.63 7.407-4.444 11.926-1.481 13.407-.222zm-14.296-.963l-.148.148c-2.074 2.074-4.593 4.519-5.26 4.667l.149 1.482h.444l-1.333 1.333c-.074.074-.148.222-.222.37V7.112L8.444 5.63l.149 8.222c-.223.148-.445.222-.667.37zm.518-12.666l.075 2.518-6.89 1.482v-3.63l6.815-.37zm-6.888 35.63v-.964h.888l-.888.963zm63.185-.149l-.593-.74h.593v.74z" transform="translate(-336 -3598) translate(54 3468) translate(282 130)"/>
                </g>
            </g>
        </g>
    </g>
</svg>
