<svg xmlns="http://www.w3.org/2000/svg" width="204" height="56" viewBox="0 0 204 56">
    <g fill="none" fill-rule="evenodd">
        <g fill-rule="nonzero">
            <g>
                <g>
                    <path fill="#067261" d="M45.963 17.87h4.197v13.133h2.302V17.871h4.196v-2.065h-8.63l-2.065 2.065zm-21.425 4.74v8.393L55.338 0l-30.8 22.61zm44.508.236c.576-.71.846-1.59.846-2.606 0-1.32-.44-2.37-1.286-3.215-.846-.813-1.997-1.253-3.418-1.253h-5.89v15.231H61.6v-6.397h2.877l3.215 6.397H70.4l-3.52-6.735c.88-.237 1.59-.711 2.166-1.422m-7.48-.237v-4.738h3.419c.778 0 1.387.203 1.861.643s.71 1.015.71 1.76c0 .744-.236 1.32-.71 1.76-.474.406-1.117.643-1.895.643h-3.385v-.068zM0 31.003L21.865 8.97 0 22.61v8.394zm92.502 0h9.713v-2.065h-7.412V24.37h6.33v-2.064h-6.33V17.87h7.412v-2.065h-9.713v15.197zm26.535-15.23v2.064h4.197v13.132h2.301V17.871h4.163v-2.065h-10.661v-.034zm-4.942 10.695l-2.707-4.096-4.333-6.566h-2.098v15.23h2.301V20.343l2.404 3.621 4.603 7.04h2.132v-15.23h-2.302v10.695zm-25.723-9.24c-.947-.948-2.267-1.422-3.926-1.422h-5.348v15.23h5.348c1.659 0 2.979-.473 3.926-1.42.643-.644 1.083-1.456 1.253-2.404.169-.947.27-2.234.27-3.892 0-1.625-.101-2.843-.27-3.757-.136-.914-.576-1.692-1.253-2.335m-.88 9.037c-.101.677-.304 1.218-.677 1.624-.609.677-1.489 1.016-2.572 1.016h-2.81V17.87h2.81c1.083 0 1.963.338 2.572 1.015.373.406.576.914.677 1.557.102.643.136 1.59.136 2.843 0 1.286-.068 2.302-.136 2.979m-14.249 4.738h2.302v-15.23h-2.302v15.23z" transform="translate(-56 -50) translate(56 50.08)"/>
                    <path fill="#F7B40E" d="M179.622 25.723c0 .982-.271 1.794-.847 2.37-.575.575-1.32.88-2.267.88-.948 0-1.693-.305-2.234-.88-.576-.576-.846-1.355-.846-2.37v-9.95h-2.268v10.052c0 .744.135 1.455.406 2.098.27.643.643 1.185 1.15 1.659.475.473 1.05.812 1.727 1.049.643.237 1.354.372 2.099.372.744 0 1.455-.135 2.132-.372.643-.237 1.218-.61 1.726-1.05.474-.473.846-1.015 1.15-1.658.272-.643.407-1.32.407-2.098V15.772h-2.268v9.951h-.067zm-43.087-1.015h4.13v.846c0 .981-.237 1.76-.745 2.37-.61.71-1.422 1.048-2.437 1.048-.44 0-.846-.067-1.218-.237-.373-.169-.711-.372-.982-.643-.203-.203-.338-.44-.474-.643-.101-.237-.203-.507-.27-.846-.068-.338-.102-.745-.136-1.252-.034-.508-.034-1.151-.034-1.93 0-.778 0-1.421.034-1.895.034-.508.068-.914.135-1.252.068-.339.136-.61.271-.846.102-.237.271-.44.44-.643.271-.305.61-.508.982-.677.372-.17.812-.237 1.218-.237.813 0 1.523.237 2.031.677.542.44.914 1.083 1.117 1.929h2.301c-.236-1.354-.812-2.47-1.76-3.35-.947-.88-2.166-1.287-3.689-1.287-1.557 0-2.877.542-3.926 1.59-.338.34-.61.712-.812 1.118-.203.406-.339.812-.44 1.252-.102.474-.136.948-.17 1.455-.033.508-.033 1.253-.033 2.167 0 .913 0 1.658.034 2.166.033.507.067 1.015.169 1.455.101.44.237.88.44 1.286s.474.779.846 1.117c1.083 1.083 2.37 1.59 3.926 1.59.812 0 1.557-.134 2.234-.405s1.32-.711 1.861-1.286c.508-.508.847-1.117 1.05-1.76.203-.677.304-1.49.304-2.471v-2.302h-4.501l-1.896 1.896zM12.286 31.003l26.4-26.535-26.4 18.141v8.394zm182.228-12.49c-.237-.54-.542-1.048-.982-1.455-.88-.846-2.03-1.286-3.486-1.286h-5.686V30.97h2.268v-6.126h3.418c1.456 0 2.606-.44 3.486-1.32.406-.406.745-.88.982-1.455.237-.542.338-1.151.338-1.794 0-.61-.135-1.185-.338-1.76m-2.674 3.621c-.474.44-1.117.677-1.93.677h-3.282v-4.975h3.283c.812 0 1.455.237 1.929.677.474.44.71 1.05.71 1.828s-.202 1.353-.71 1.793m-23.32-2.403c-.102-.474-.237-.88-.44-1.252s-.474-.745-.778-1.083c-1.084-1.05-2.37-1.59-3.96-1.59-1.557 0-2.877.54-3.927 1.59-.338.338-.609.71-.812 1.117-.203.406-.338.812-.44 1.252-.101.474-.135.948-.17 1.456 0 .507-.033 1.252-.033 2.166 0 .914 0 1.658.034 2.166s.068 1.015.17 1.455c.1.44.236.88.44 1.286.202.407.473.779.845 1.117 1.05 1.083 2.37 1.591 3.926 1.591 1.557 0 2.877-.541 3.96-1.59.339-.34.61-.678.779-1.084.203-.372.338-.812.44-1.252.101-.474.135-.948.17-1.49.033-.54.033-1.252.033-2.2 0-.913 0-1.658-.034-2.2-.068-.507-.135-1.015-.203-1.455m-2.098 5.585c-.034.508-.068.914-.136 1.252-.068.339-.17.61-.27.846-.102.237-.271.44-.44.643-.271.271-.576.508-.982.677-.406.17-.812.237-1.252.237-.44 0-.847-.101-1.253-.237-.406-.169-.71-.406-.981-.677-.203-.203-.339-.44-.44-.643-.102-.237-.17-.507-.237-.846-.068-.338-.102-.744-.136-1.252-.033-.508-.033-1.15-.033-1.895 0-.779 0-1.422.033-1.896.034-.508.068-.914.136-1.252.067-.339.135-.61.27-.846.136-.237.271-.44.44-.643.271-.305.61-.508.982-.677.406-.17.812-.237 1.252-.237.44 0 .847.067 1.253.237.406.169.71.372.981.677.203.203.339.44.474.643.102.237.203.507.27.846.069.338.102.744.136 1.252 0 .508.034 1.117.034 1.896-.101.744-.101 1.387-.101 1.895m-11.474-2.572c.541-.677.846-1.557.846-2.573 0-1.286-.44-2.335-1.286-3.147-.846-.813-1.963-1.219-3.385-1.219h-5.788v15.197h2.268v-6.566h2.843l3.283 6.566h2.64l-3.587-6.87c.913-.238 1.624-.711 2.166-1.388m-7.345-.237v-4.705h3.35c.745 0 1.355.203 1.829.643.473.406.71.982.71 1.726 0 .745-.237 1.286-.71 1.693-.474.406-1.084.609-1.862.609h-3.317v.034z" transform="translate(-56 -50) translate(56 50.08)"/>
                    <path fill="#131313" d="M195.055 12.794h1.253v3.96h.677v-3.96h1.252v-.61h-3.215v.61h.033zm7.345-.643l-1.32 2.843-1.354-2.843h-.677v4.569h.677v-3.046l1.083 2.234h.508l1.05-2.234v3.046h.71v-4.57h-.677z" transform="translate(-56 -50) translate(56 50.08)"/>
                    <g fill="#067261">
                        <path d="M1.218 8.495c.204.034.542.034.914.034 1.151 0 2.2-.406 2.2-1.658 0-1.185-1.015-1.659-2.234-1.659h-.913v3.283h.033zm0-4.095h1.016c1.184 0 1.861-.61 1.861-1.455 0-1.016-.778-1.388-1.895-1.388-.508 0-.812.034-.982.068V4.4zM.102.88C.575.778 1.354.71 2.132.71c1.117 0 1.828.204 2.37.61.44.338.71.846.71 1.523 0 .812-.541 1.557-1.455 1.895v.034c.812.203 1.76.88 1.76 2.166 0 .745-.305 1.287-.71 1.727-.61.541-1.558.812-2.98.812-.778 0-1.353-.068-1.725-.102V.88zM11.542 5.652c0-.71-.305-1.827-1.557-1.827-1.151 0-1.625 1.049-1.727 1.827h3.284zm-3.317.813c.033 1.523.981 2.132 2.132 2.132.812 0 1.286-.135 1.692-.305l.203.813c-.406.169-1.083.372-2.064.372-1.896 0-3.046-1.252-3.046-3.114 0-1.861 1.083-3.317 2.876-3.317 1.997 0 2.539 1.76 2.539 2.91 0 .238-.034.407-.034.509H8.225zM14.622 3.182h1.116v6.16h-1.116v-6.16zm1.252-1.727c0 .373-.27.677-.71.677-.407 0-.678-.304-.678-.677 0-.406.305-.71.71-.71.407 0 .678.304.678.71M18.243 4.84c0-.643 0-1.15-.068-1.658h.982l.068 1.015h.033c.305-.575 1.016-1.15 2.031-1.15.846 0 2.166.507 2.166 2.64v3.688h-1.117V5.822c0-.982-.372-1.828-1.421-1.828-.745 0-1.32.508-1.49 1.15-.067.136-.067.34-.067.508v3.723h-1.117V4.84zM30.09 5.618c0-.203 0-.372-.068-.507-.204-.643-.745-1.185-1.557-1.185-1.083 0-1.828.914-1.828 2.336 0 1.218.61 2.233 1.828 2.233.677 0 1.32-.44 1.557-1.15.067-.203.101-.407.101-.61V5.618h-.034zm1.184-2.436c-.034.44-.068.947-.068 1.692v3.588c0 1.421-.27 2.267-.88 2.809-.61.575-1.455.744-2.234.744-.744 0-1.557-.169-2.064-.507l.27-.846c.407.27 1.05.473 1.794.473 1.151 0 1.997-.609 1.997-2.166v-.677h-.034c-.338.576-1.015 1.016-1.963 1.016-1.523 0-2.64-1.286-2.64-3.013 0-2.098 1.354-3.283 2.776-3.283 1.083 0 1.658.576 1.929 1.083h.034l.067-.913h1.016zM41.258 5.686c0-.135 0-.338-.067-.474-.17-.71-.779-1.286-1.625-1.286-1.15 0-1.861 1.016-1.861 2.37 0 1.252.609 2.267 1.827 2.267.745 0 1.456-.508 1.659-1.354.034-.169.067-.304.067-.474V5.686zM42.375.305V7.75c0 .541 0 1.184.068 1.59h-1.015l-.068-1.083h-.034c-.338.677-1.083 1.219-2.098 1.219-1.49 0-2.64-1.252-2.64-3.148 0-2.064 1.252-3.317 2.775-3.317.948 0 1.59.44 1.862.948h.033V.27h1.117v.035zM44.88 3.182h1.117v6.16H44.88v-6.16zm1.252-1.727c0 .373-.27.677-.71.677-.407 0-.677-.304-.677-.677 0-.406.304-.71.71-.71.407 0 .677.304.677.71M52.292 9.342V4.028H49.72v5.314h-1.117V4.028h-.88v-.846h.88v-.204c0-.88.203-1.624.677-2.098.372-.372.88-.575 1.557-.575.372 0 .677.101.88.203l-.237.812c-.17-.068-.406-.17-.677-.17-.88 0-1.117.745-1.117 1.727v.27h2.572v-.304c0-.88.204-1.658.711-2.166.406-.406.982-.575 1.49-.575.406 0 .744.101.947.169l-.135.88c-.17-.068-.406-.136-.711-.136-.948 0-1.185.847-1.185 1.794v.339h1.49v.846h-1.49v5.314h-1.083v.034zM60.45 5.652c0-.71-.305-1.827-1.558-1.827-1.15 0-1.624 1.049-1.726 1.827h3.283zm-3.284.813c.034 1.523.982 2.132 2.132 2.132.813 0 1.287-.135 1.693-.305l.203.813c-.406.169-1.083.372-2.065.372-1.895 0-3.046-1.252-3.046-3.114 0-1.861 1.083-3.317 2.877-3.317 1.997 0 2.538 1.76 2.538 2.91 0 .238-.033.407-.033.509h-4.299zM63.563 5.11c0-.71 0-1.353-.068-1.928h.982L64.51 4.4h.067c.271-.812.948-1.354 1.693-1.354.135 0 .203 0 .304.034v1.05c-.101-.035-.237-.035-.372-.035-.778 0-1.354.61-1.49 1.456-.033.169-.033.338-.033.507v3.284h-1.117V5.11zM72.262 5.652c0-.71-.305-1.827-1.557-1.827-1.151 0-1.625 1.049-1.727 1.827h3.284zm-3.284.813c.034 1.523.982 2.132 2.133 2.132.812 0 1.286-.135 1.692-.305l.203.813c-.406.169-1.083.372-2.064.372-1.896 0-3.047-1.252-3.047-3.114 0-1.861 1.083-3.317 2.877-3.317 2.031 0 2.539 1.76 2.539 2.91 0 .238-.034.407-.034.509h-4.299zM75.342 4.84c0-.643 0-1.15-.068-1.658h.981l.068 1.015h.034c.305-.575 1.015-1.15 2.03-1.15.847 0 2.167.507 2.167 2.64v3.688h-1.117V5.822c0-.982-.372-1.828-1.422-1.828-.744 0-1.32.508-1.489 1.15-.068.136-.068.34-.068.508v3.723h-1.116V4.84zM84.412 1.388v1.76h1.591v.846h-1.59V7.31c0 .778.202 1.184.845 1.184.305 0 .508-.033.644-.067l.067.846c-.203.101-.575.17-.981.17-.508 0-.948-.17-1.219-.475-.304-.338-.44-.88-.44-1.59V4.027h-.947v-.846h.947v-1.49l1.083-.304zM91.283 3.182H92.4v6.16h-1.117v-6.16zm1.219-1.727c0 .373-.271.677-.711.677-.406 0-.677-.304-.677-.677 0-.406.304-.71.71-.71.44 0 .678.304.678.71M94.735 8.19c.339.204.914.44 1.49.44.812 0 1.184-.405 1.184-.913 0-.542-.304-.812-1.15-1.15-1.117-.407-1.625-1.016-1.625-1.76 0-.982.812-1.795 2.132-1.795.61 0 1.185.17 1.523.373l-.27.812c-.237-.17-.677-.372-1.253-.372-.677 0-1.05.372-1.05.846 0 .507.373.744 1.186 1.049 1.083.406 1.624.948 1.624 1.862 0 1.083-.846 1.861-2.301 1.861-.677 0-1.287-.17-1.727-.406l.237-.846zM103.874 4.84c0-.643 0-1.15-.034-1.658h.982l.067 1.015h.034c.305-.575 1.015-1.15 2.03-1.15.847 0 2.167.507 2.167 2.64v3.688h-1.117V5.822c0-.982-.372-1.828-1.421-1.828-.745 0-1.32.508-1.49 1.15-.067.136-.067.34-.067.508v3.723h-1.117V4.84h-.034zM112.302 6.262c0 1.353.778 2.369 1.861 2.369s1.862-1.016 1.862-2.403c0-1.05-.508-2.37-1.862-2.37-1.286 0-1.861 1.253-1.861 2.404m4.873-.068c0 2.268-1.59 3.283-3.08 3.283-1.658 0-2.944-1.219-2.944-3.182 0-2.064 1.354-3.283 3.046-3.283 1.794.034 2.978 1.32 2.978 3.182M119.24 5.11c0-.71 0-1.353-.068-1.928h.982l.034 1.218h.034c.27-.812.947-1.354 1.692-1.354.135 0 .203 0 .304.034v1.05c-.101-.035-.236-.035-.372-.035-.778 0-1.354.61-1.49 1.456-.033.169-.067.338-.067.507v3.284h-1.117V5.11h.068zM124.012 4.84c0-.643 0-1.15-.067-1.658h.981l.068.981h.034c.338-.575.914-1.15 1.929-1.15.846 0 1.49.507 1.76 1.252h.034c.203-.339.44-.61.677-.813.372-.27.778-.44 1.354-.44.812 0 2.03.542 2.03 2.674v3.622h-1.083V5.822c0-1.185-.44-1.896-1.354-1.896-.643 0-1.117.474-1.32 1.016-.067.169-.101.372-.101.575v3.825h-1.083v-3.69c0-.981-.44-1.692-1.286-1.692-.711 0-1.219.575-1.388 1.117-.068.17-.102.372-.102.541v3.724h-1.083V4.84zM138.532 6.194c-1.218-.034-2.606.203-2.606 1.388 0 .71.474 1.083 1.05 1.083.812 0 1.32-.508 1.489-1.05.033-.101.067-.237.067-.372v-1.05zm.17 3.148l-.102-.779h-.034c-.338.474-1.015.914-1.895.914-1.253 0-1.896-.88-1.896-1.76 0-1.49 1.32-2.302 3.723-2.302V5.28c0-.508-.135-1.422-1.387-1.422-.576 0-1.185.17-1.591.474l-.27-.744c.507-.339 1.252-.542 2.03-.542 1.895 0 2.335 1.286 2.335 2.539v2.301c0 .542.034 1.05.102 1.49h-1.015v-.034z" transform="translate(-56 -50) translate(56 50.08) translate(50.43 41.563)"/>
                    </g>
                    <path fill="#067261" d="M192.483 41.868H193.6V50.905H192.483z" transform="translate(-56 -50) translate(56 50.08)"/>
                </g>
            </g>
        </g>
    </g>
</svg>
