<?xml version="1.0" encoding="utf-8"?>
<!-- Generator: Adobe Illustrator 25.2.0, SVG Export Plug-In . SVG Version: 6.00 Build 0)  -->
<svg version="1.1" id="Layer_1" xmlns="http://www.w3.org/2000/svg" xmlns:xlink="http://www.w3.org/1999/xlink" x="0px" y="0px"
	 viewBox="0 0 604.2 493" style="enable-background:new 0 0 604.2 493;" xml:space="preserve">
<style type="text/css">
	.st0{fill-rule:evenodd;clip-rule:evenodd;fill:#CCCCCC;stroke:#CCCCCC;stroke-width:0.5;}
	.st1{fill-rule:evenodd;clip-rule:evenodd;fill:#1A2E35;}
	.st2{fill:#CCCCCC;stroke:#CCCCCC;stroke-width:0.2;}
</style>
<g>
	<g>
		<g>
			<g>
				<g>
					<path class="st0" d="M579.2,427.8c0.1,0.6,4.7,0.6,10.3,0.1c5.6-0.6,10.1-1.5,9.9-2.1c-0.1-0.6-4.5-0.6-9.9-0.1h-0.3
						C583.6,426.3,579.1,427.2,579.2,427.8L579.2,427.8z M535.2,426.4c-0.1,0.6,4.6,1.5,10.7,1.7c6.1,0.2,11.1-0.5,11.1-1.1
						c0.1-0.6-4.8-0.9-10.8-1.1C540.3,425.7,535.3,425.8,535.2,426.4L535.2,426.4z M495.8,414.9c-0.2,0.5,3.7,2.7,8.8,4.5
						c5.1,1.8,9.4,2.6,9.5,2c0.1-0.5-3.9-2.1-9-3.9C500.1,415.7,496,414.4,495.8,414.9L495.8,414.9z M458.3,395
						c-0.4,0.5,2.9,3.6,7.7,6.7c4.8,3,9.2,4.7,9.5,4.2s-3.5-3-8.2-6C462.7,396.8,458.7,394.5,458.3,395L458.3,395z M515.9,338.2
						c-1.1,0.7-2.3,1.5-3.6,2.3l-0.3,0.2c-4.9,3.2-8.9,5.8-8.7,6.2c0.2,0.4,3.8-1.3,8.1-4l0.6-0.4c0.3-0.2,0.6-0.4,0.9-0.5
						c5-3.2,8.6-6.3,8.4-6.7c-0.2-0.2-2.1,0.9-4.9,2.6L515.9,338.2L515.9,338.2z M463.4,363.1c0.2,0.6,5.1,0,11-1.8s10.3-4.1,10-4.7
						s-5,0.7-10.8,2.5c-1,0.3-2,0.6-2.9,0.9l-0.6,0.2C466.1,361.5,463.3,362.6,463.4,363.1L463.4,363.1z M541.5,313.5
						c-4.1,4.4-7.4,8.1-7,8.4s4.4-2.8,8.6-7.3c4.2-4.5,6.8-8.6,6.4-8.9C549,305.4,545.6,309,541.5,313.5L541.5,313.5z M428.5,363.1
						c-0.2,0.1,0.7,2.1,2.3,4.7c-3.8,0.5-6.6,1.2-6.6,1.6c0,0.5,3.3,0.6,7.8,0.2c0.6,0.9,1.3,1.8,2,2.8c3.5,4.9,6.9,8.3,7.2,7.9
						c0.3-0.3-2.5-4.2-6-9c-0.5-0.7-1-1.3-1.4-1.9l0.6-0.1c5.6-0.6,10.1-1.5,10.1-2c-0.1-0.5-4.2-0.6-9.5-0.1l-0.7,0.1l0,0
						c-0.7,0.1-1.3,0.1-1.9,0.2C430.3,364.8,428.8,362.9,428.5,363.1L428.5,363.1z M563.1,272.2l-0.2,0.9c-0.2,1-0.5,2-0.7,3.1
						l-0.2,1l-0.1,0.3l-0.1,0.3l-0.2,0.7l-0.4,1.6l-0.1,0.6L561,281l-0.1,0.6c-0.8,3.6-1.4,6.2-0.9,6.4c0.5,0.3,2.7-4,4-9.9
						c1.4-5.9,1.3-10.9,0.7-11.1C564.4,267.1,563.8,269.1,563.1,272.2L563.1,272.2z M381.3,363.8c-0.1,0.5,4,1.5,9.2,2.1h0.3
						c5.4,0.6,9.7,0.7,9.8,0.1c0-0.5-4.2-1.5-9.5-2.1S381.4,363.2,381.3,363.8z M416,336.2c1.9,5.9,4.4,10.2,5,9.9
						c0.7-0.3-0.8-5-2.6-10.8c-0.2-0.7-0.4-1.3-0.6-1.9l-0.2-0.6c-1.5-4.5-2.7-7.8-3.3-7.7C413.6,325.3,414.1,330.4,416,336.2
						L416,336.2z M563.5,237.1c1.8,5.8,3,10.5,3.6,10.6c0.5,0,0.1-4.9-1.7-10.8c-1.8-6-4.3-10.6-4.7-10.4
						C560.2,226.6,561.8,231.3,563.5,237.1L563.5,237.1z M339.3,353.9c-0.3,0.6,4.2,2.2,10,3.5c5.8,1.4,10.7,2,10.9,1.4
						c0.2-0.6-4.1-2.1-9.7-3.4l-0.3-0.1C344.4,354,339.6,353.3,339.3,353.9z M406.9,292.7c-0.1,6.1,0.8,10.9,1.4,10.8
						c0.5-0.1,0.8-3.1,0.9-7.3v-0.6c0-1,0.1-2,0.1-3.1c0.1-6,0.1-10.9-0.5-10.9C408.1,281.6,407,286.6,406.9,292.7z M535.7,191.5
						c-0.4,0.6,3.5,3.6,7.8,7.8s7.6,7.9,8.2,7.5c0.5-0.4-2-4.8-6.5-9.1C540.6,193.3,536,191,535.7,191.5L535.7,191.5z M300.9,338.2
						c-0.3,0.6,3.8,3.1,9.4,5.6c5.5,2.5,10.2,4.1,10.5,3.6c0.3-0.6-3.9-3.1-9.4-5.6C305.9,339.3,301.2,337.7,300.9,338.2z
						 M411.9,251c-1.3,5.8-1.5,10.9-0.9,11c0.5,0.2,1.4-3.5,2.6-8.2l0.3-1.3l0.2-0.7c1.3-5.7,2.4-10.4,1.8-10.7
						C415.3,240.9,413.3,245.2,411.9,251L411.9,251z M497.8,182.8c0,0.6,4.9,0.4,10.9,0.6c6,0.1,10.8,0.6,11,0
						c0.2-0.6-4.4-2.1-10.6-2.2C502.8,181,497.8,182.2,497.8,182.8L497.8,182.8z M266.9,312.5c-0.5,0.5,3,3.4,7.8,6.4
						c4.7,3.1,9,5,9.4,4.5s-3.2-3.3-7.9-6.3C271.6,314.1,267.4,312,266.9,312.5L266.9,312.5z M432.7,214.6c-4.2,4.5-6.8,8.7-6.3,9
						s3.8-3.4,7.9-7.8c4.1-4.4,7.5-8,7.1-8.4C441,207,436.9,210,432.7,214.6L432.7,214.6z M458.1,193.9c0.2,0.4,4.5-1.8,9.7-4.5
						c5.2-2.6,9.5-4.7,9.4-5.1c-0.1-0.4-4.6,0.9-10,3.6c-1.9,0.9-3.5,1.9-5,2.8l-0.5,0.3C459.4,192.5,457.9,193.7,458.1,193.9
						L458.1,193.9z M235.6,285.2c-0.5,0.5,2.8,4.2,7.3,8.4c4.5,4.2,8.4,7.2,8.9,6.7c0.4-0.4-2.2-3.6-6-7.2l-0.5-0.5
						c-0.2-0.2-0.5-0.5-0.8-0.7C240,287.8,236,284.8,235.6,285.2z M205.3,253.6c-0.3,0.3,2.4,4.3,6.1,9c3.7,4.7,6.9,8.2,7.2,7.9
						c0.1-0.1-0.2-0.7-0.7-1.6l-0.2-0.3c-1.1-1.7-2.9-4.3-5.2-7.1C208.8,256.9,205.6,253.3,205.3,253.6L205.3,253.6z M180.5,218.6
						c-0.2,0.2,0.6,1.7,1.9,3.9l0.3,0.4c0.9,1.4,2.1,3.2,3.3,5c3.4,4.9,6.4,8.6,6.8,8.3c0.2-0.2-0.6-1.7-1.9-3.9l-0.3-0.4
						c-0.9-1.4-1.9-3-3.1-4.7l-0.2-0.3C183.9,222.1,180.8,218.3,180.5,218.6L180.5,218.6z M157.6,184.8c-0.6,0.4,1.5,4.5,4.6,9.2
						s6,8.3,6.6,7.9c0.5-0.4-1.5-4.5-4.6-9.2S158.2,184.4,157.6,184.8L157.6,184.8z M135.2,148.3c-0.6,0.3,1.3,4.5,4.2,9.4
						c2.9,4.8,5.7,8.5,6.3,8.1c0.6-0.3-1.3-4.5-4.3-9.4C138.6,151.6,135.8,148,135.2,148.3z"/>
					
						<g transform="translate(-704 -17535) translate(0 17535.803) scale(-1 1) rotate(32 -571.981 -1994.736) translate(.55 106.959) translate(121.695 518.767)">
					</g>
					
						<g transform="translate(-704 -17535) translate(0 17535.803) scale(-1 1) rotate(32 -571.981 -1994.736) translate(.55 106.959) translate(447.23 67.716)">
					</g>
					
						<g transform="translate(-704 -17535) translate(0 17535.803) scale(-1 1) rotate(32 -571.981 -1994.736) translate(.55 106.959) translate(447.23 24.879)">
					</g>
					
						<g transform="translate(-704 -17535) translate(0 17535.803) scale(-1 1) rotate(32 -571.981 -1994.736) translate(.55 106.959) translate(447.23)">
						<path class="st1" d="M-111.9-168.3c0.7,0,1.2,1.1,1.3,2.6c0,1.5-0.5,2.7-1.1,2.7c-0.7,0-1.2-1.1-1.3-2.6
							C-113-167.1-112.5-168.3-111.9-168.3"/>
					</g>
				</g>
				<path class="st2" d="M10.5,73.5c-0.1-0.2-0.1-0.4-0.2-0.6c0-0.1,0-0.1,0-0.2c0-0.2,0-0.3,0-0.5l0,0l0,0v-0.1l0.2-0.4l0,0
					c0.1-0.3,0.4-0.5,0.6-0.7l0.2-0.1c0.1-0.1,0.2-0.2,0.4-0.2l0.3-0.2l135.7-6.1c0.8,0,1.5,0.4,1.8,1.1c0.3,0.6,0.2,1.4-0.2,2
					l-22.1,28.2l9.2,39.6c0,0.2,0.1,0.3,0,0.5l0,0c0,0.2-0.1,0.4-0.1,0.6l-0.1,0.1c-0.1,0.2-0.2,0.3-0.4,0.5l-0.3,0.2
					c-0.2,0.1-0.5,0.2-0.7,0.2c-0.1,0-0.1,0-0.2,0c-0.2,0-0.4,0-0.6-0.1l-0.1,0.1l-30.4-11.8l-18.2,26.1c-0.3,0.5-0.8,0.8-1.4,0.8
					s-1.1-0.2-1.5-0.6l-71.6-78C10.7,73.8,10.6,73.7,10.5,73.5L10.5,73.5L10.5,73.5z M27.4,73.9l97,19.4l19.4-24.9
					C143.8,68.5,27.4,73.9,27.4,73.9z M112,113.8l-6.4,8.9l22.3,8.6L112,113.8z M112.5,109.1L112.5,109.1c0.2,0.1,0.4,0.2,0.6,0.4
					c0,0,0,0.1,0.1,0.1l0,0l18,19.7l-7.5-32.4l-90-18C33.6,78.9,112.5,109.1,112.5,109.1z M83.6,147.8l17.7-25.4l0,0l7.7-10.8
					L18.9,77.2L83.6,147.8z"/>
			</g>
		</g>
	</g>
</g>
</svg>
