<?xml version="1.0" encoding="utf-8"?>
<!-- Generator: Adobe Illustrator 25.2.0, SVG Export Plug-In . SVG Version: 6.00 Build 0)  -->
<svg version="1.1" id="Layer_1" xmlns="http://www.w3.org/2000/svg" xmlns:xlink="http://www.w3.org/1999/xlink" x="0px" y="0px"
	 viewBox="0 0 128 128" style="enable-background:new 0 0 128 128;" xml:space="preserve">
<style type="text/css">
	.st0{fill:#fff;}
</style>
<g id="Page-1">
	<g id="Summer" transform="translate(1.000000, -3.000000)">
		<g id="summer" transform="translate(-1.000000, 3.000000)">
			<path id="Combined-Shape" class="st0" d="M64,101.1c1.3,0,2.5,0.9,2.8,2.2l0.1,0.4l0,0.4v21.1c0,1.6-1.3,2.9-2.9,2.9
				c-1.3,0-2.5-0.9-2.8-2.2l-0.1-0.4l0-0.4V104C61.1,102.4,62.4,101.1,64,101.1z M81.2,99.4l0.2,0.3l0.2,0.4l3.9,9.8
				c0.3,0.7,0.3,1.5,0,2.2c-0.3,0.7-0.9,1.3-1.6,1.5c-0.3,0.1-0.7,0.2-1.1,0.2c-0.9,0-1.7-0.4-2.3-1.2l-0.2-0.3l-0.2-0.3l-4-9.9
				c-0.6-1.5,0.2-3.2,1.7-3.8C79.1,98,80.5,98.4,81.2,99.4z M49,98l0.3,0.1l0.4,0.2c0.3,0.2,0.7,0.5,0.9,0.8l0.2,0.3l0.2,0.4
				c0.2,0.5,0.3,1,0.2,1.5l-0.1,0.4l-0.1,0.4l-4.2,9.7c-0.5,1.1-1.5,1.7-2.6,1.7c-0.4,0-0.8-0.1-1.1-0.2c-0.7-0.3-1.3-0.9-1.6-1.6
				c-0.2-0.5-0.3-1-0.2-1.5l0.1-0.4l0.1-0.4l4.2-9.7C46.1,98.3,47.6,97.6,49,98z M37.6,90.4c0.8,0.8,1.1,2.1,0.6,3.2L38,94l-0.3,0.4
				l-14.9,14.9c-1.1,1.1-3,1.1-4.1,0c-0.9-0.9-1.1-2.3-0.5-3.4l0.2-0.3l0.3-0.3l14.9-14.9C34.8,89.2,36.6,89.3,37.6,90.4z
				 M93.6,89.8l0.3,0.2l0.4,0.3l14.9,14.9c1.1,1.1,1.1,3,0,4.1c-0.9,0.9-2.3,1.1-3.4,0.5l-0.3-0.2l-0.3-0.3L90.2,94.3
				c-1-1.1-0.9-2.9,0.2-3.9C91.2,89.5,92.5,89.3,93.6,89.8z M64,29.5c9.2,0,17.9,3.6,24.4,10.1c6.5,6.5,10.1,15.2,10.1,24.4
				c0,19.1-15.4,34.5-34.5,34.5S29.5,83.1,29.5,64S44.9,29.5,64,29.5z M64,35.3c-15.9,0-28.7,12.9-28.7,28.7S48.1,92.7,64,92.7
				c7.6,0,14.9-3,20.3-8.4s8.4-12.7,8.4-20.3C92.7,48.1,79.9,35.3,64,35.3z M101.1,76.9l0.4,0.1l0.4,0.1l9.7,4.2
				c1.3,0.5,2,1.9,1.7,3.3c-0.3,1.4-1.5,2.3-2.9,2.3c-0.2,0-0.3,0-0.5-0.1l-0.3-0.1l-0.3-0.1l-9.7-4.2c-1.5-0.6-2.2-2.3-1.5-3.8
				c0.3-0.7,0.9-1.3,1.6-1.6C100.1,76.9,100.6,76.8,101.1,76.9z M29.3,77.4l0.2,0.3l0.1,0.4c0.2,0.6,0.1,1.3-0.1,1.9
				c-0.2,0.5-0.5,0.9-0.9,1.2l-0.3,0.2l-0.4,0.2l-9.8,3.9c-0.3,0.1-0.7,0.2-1.1,0.2c-1.2,0-2.3-0.7-2.7-1.8c-0.3-0.7-0.3-1.5,0-2.2
				c0.2-0.5,0.5-0.8,0.9-1.2l0.3-0.2l0.3-0.2l9.9-4C27.2,75.6,28.7,76.2,29.3,77.4z M125.1,61.1c1.6,0,2.9,1.3,2.9,2.9
				c0,1.3-0.9,2.5-2.2,2.8l-0.4,0.1l-0.4,0H104c-1.6,0-2.9-1.3-2.9-2.9c0-1.3,0.9-2.5,2.2-2.8l0.4-0.1l0.4,0H125.1z M24,61.1
				c1.6,0,2.9,1.3,2.9,2.9c0,1.3-0.9,2.5-2.2,2.8l-0.4,0.1l-0.4,0H2.9C1.3,66.9,0,65.6,0,64c0-1.3,0.9-2.5,2.2-2.8l0.4-0.1l0.4,0H24
				z M113.6,44.2c0.5,1.2,0.1,2.6-1,3.4l-0.3,0.2L112,48l-9.8,3.9c-0.3,0.1-0.7,0.2-1,0.2c-1.2,0-2.3-0.7-2.7-1.8
				c-0.3-0.7-0.3-1.6,0-2.3c0.2-0.5,0.5-0.9,0.9-1.2l0.3-0.2l0.4-0.2l9.8-3.8C111.4,42,113,42.7,113.6,44.2z M17.9,41.1l0.4,0.1
				l0.4,0.1l9.7,4.2c1.5,0.6,2.2,2.3,1.5,3.8c-0.5,1.1-1.5,1.8-2.7,1.8c-0.2,0-0.3,0-0.5-0.1L26.4,51l-0.3-0.1l-9.7-4.2
				c-1.5-0.6-2.2-2.3-1.5-3.8C15.4,41.6,16.7,41,17.9,41.1z M109.1,18.9c0.8,0.8,1.1,2.1,0.6,3.2l-0.2,0.4l-0.3,0.4L94.4,37.7
				c-0.5,0.5-1.3,0.9-2,0.9c-0.8,0-1.5-0.3-2.1-0.9c-0.9-0.9-1.1-2.3-0.5-3.4L90,34l0.3-0.3l14.9-14.9
				C106.4,17.7,108.1,17.8,109.1,18.9z M22,18.2l0.3,0.2l0.4,0.3l14.9,14.9c1.1,1.1,1.1,3,0,4.1c-0.9,0.9-2.3,1.1-3.4,0.5L34,38
				l-0.3-0.3L18.7,22.8c-1-1.1-0.9-2.9,0.2-3.9C19.7,18,21,17.8,22,18.2z M85.2,14.9c1.2,0.5,1.9,1.8,1.7,3.1l-0.1,0.4l-0.1,0.4
				l-4.2,9.7c-0.5,1.1-1.5,1.8-2.7,1.8c-0.4,0-0.8-0.1-1.1-0.2c-0.7-0.3-1.3-0.9-1.6-1.6c-0.2-0.5-0.2-1-0.2-1.5l0.1-0.4l0.1-0.4
				l4.2-9.7C82,14.9,83.7,14.3,85.2,14.9z M47.6,15.3l0.2,0.3l0.2,0.4l3.9,9.9c0.5,1.5-0.2,3.2-1.7,3.7c-0.3,0.1-0.7,0.2-1.1,0.2
				c-0.9,0-1.7-0.4-2.3-1.2l-0.2-0.3l-0.2-0.3l-3.8-9.8c-0.6-1.5,0.1-3.2,1.6-3.8C45.4,13.8,46.8,14.2,47.6,15.3z M64,0
				c1.3,0,2.5,0.9,2.8,2.2l0.1,0.4l0,0.4V24c0,1.6-1.3,2.9-2.9,2.9c-1.3,0-2.5-0.9-2.8-2.2l-0.1-0.4l0-0.4V2.9C61.1,1.3,62.4,0,64,0
				z"/>
		</g>
	</g>
</g>
</svg>
