<svg xmlns="http://www.w3.org/2000/svg" width="108" height="80" viewBox="0 0 108 80">
    <g fill="none" fill-rule="evenodd">
        <g>
            <g>
                <g>
                    <path fill="#F8F8F8" d="M36.239 77.014c9.88-2.454 17.025-2.841 21.43-1.162 6.61 2.52 27.728 7.271 34.154 1.162 4.284-4.073 5.05-13.079 2.296-27.016-.755-2.857-.755-6.314 0-10.371C95.252 33.54 96.51 7.57 85.413 2.246 78.014-1.304 70.521-.646 62.931 4.22c-6.258 4.361-11.39 5.122-15.395 2.284-6.007-4.258-17.673-9.706-26.495 0-8.821 9.706 0 23.134 0 25.66 0 2.525.967 10.397-6.086 15.43-7.054 5.032-6.087 17.378 0 23.399 4.058 4.014 11.152 6.02 21.284 6.02z" transform="translate(-95 -1680) translate(57 1660) translate(38.408 20)"/>
                    <g>
                        <g fill-rule="nonzero" transform="translate(-95 -1680) translate(57 1660) translate(38.408 20) translate(0 11.429) matrix(-1 0 0 1 106 0)">
                            <path fill="#007A69" stroke="#F8F8F8" d="M28.666 37.934c1.071 0 1.94-.868 1.94-1.94 0-1.071-.869-1.94-1.94-1.94h-3.88c-1.07 0-1.94.869-1.94 1.94 0 1.072.87 1.94 1.94 1.94h3.88z"/>
                            <path fill="#007A69" stroke="#F8F8F8" stroke-width="1.5" d="M84.503 0H44.17c-1.393 0-2.523 1.13-2.525 2.523V30.28H37.86V10.435c-.002-1.582-1.283-2.863-2.865-2.865H22.146c-4.68 0-6.914 4.007-8.544 6.932L6.866 26.595c-.164.271-.39.501-.658.67C.562 31.023 0 35.705 0 46.286c-.007 1.603 1.285 2.909 2.888 2.919h4.01c1.15 4.044 4.843 6.834 9.048 6.834s7.899-2.79 9.047-6.834h10.038c.158-.018.314-.05.467-.095.151.052.309.084.468.095h18.93c1.045 0 1.893-.848 1.893-1.893s-.848-1.892-1.893-1.892H37.859V34.065H83.29V45.42h-1.893c-1.045 0-1.893.847-1.893 1.892s.848 1.893 1.893 1.893h3.786c.502 0 .984-.2 1.34-.554.354-.355.553-.837.553-1.339V2.572c0-1.42-1.152-2.571-2.573-2.572zM16.907 16.343c1.63-2.92 2.958-4.988 5.24-4.988h11.926v15.14H18.431c-1.255-.053-2.475-.428-3.542-1.089l-1.773-2.256 3.791-6.807zm-.961 35.911c-3.136 0-5.679-2.542-5.679-5.677 0-3.136 2.543-5.678 5.679-5.678s5.679 2.542 5.679 5.678c-.004 3.134-2.544 5.674-5.679 5.677h0zm0-15.14c-4.766.015-8.774 3.576-9.348 8.306H3.786c.044-9.98.865-12.571 4.522-15.005.768-.504 1.406-1.181 1.863-1.978l.954-1.712.965 1.217c1.792 1.467 4.025 2.29 6.34 2.338h15.643v15.14h-8.78c-.573-4.73-4.581-8.291-9.347-8.306zm29.485-6.834V3.785h37.86V30.28H45.43z"/>
                            <path fill="#007A69" stroke="#F8F8F8" d="M43.7 37.934c-1.042 0-1.886.869-1.886 1.94s.844 1.94 1.886 1.94h11.315c1.042 0 1.886-.869 1.886-1.94s-.844-1.94-1.886-1.94H43.7z"/>
                            <circle cx="16.165" cy="46.771" r="4.095" fill="#FFF" stroke="#007A69" stroke-width="2"/>
                            <path fill="#007A69" d="M92.842 4.38h11.315c.763 0 1.386.641 1.386 1.44 0 .798-.623 1.44-1.386 1.44H92.842c-.763 0-1.386-.642-1.386-1.44 0-.799.623-1.44 1.386-1.44zM92.824 15.587h7.472c.75 0 1.368.64 1.368 1.44 0 .8-.617 1.44-1.368 1.44h-7.472c-.751 0-1.368-.64-1.368-1.44 0-.8.617-1.44 1.368-1.44zM92.896 27.226h3.88c.794 0 1.439.645 1.439 1.44 0 .795-.645 1.44-1.44 1.44h-3.88c-.795 0-1.44-.645-1.44-1.44 0-.795.645-1.44 1.44-1.44z"/>
                            <path fill="#FFF" stroke="#007A69" stroke-width="2" d="M68.11 37.934c-5.239 0-9.484 4.246-9.484 9.484 0 5.237 4.245 9.483 9.483 9.483s9.484-4.246 9.484-9.483c-.006-5.236-4.249-9.478-9.484-9.484zm0 15.174c-3.144 0-5.691-2.548-5.691-5.69 0-3.143 2.547-5.69 5.69-5.69 3.143 0 5.69 2.547 5.69 5.69-.003 3.14-2.549 5.686-5.69 5.69h0z"/>
                        </g>
                        <path fill="#F3B329" d="M26.339 9.066L56.815 9.066 56.815 31.923 26.339 31.923z" transform="translate(-95 -1680) translate(57 1660) translate(38.408 20) translate(0 11.429)"/>
                    </g>
                </g>
            </g>
        </g>
    </g>
</svg>
